<svg xmlns="http://www.w3.org/2000/svg" viewBox="0 0 754 289.9"><path d="M2.1 166.3a3.1 3.1 0 0 1-1-2.4V73.3a3 3 0 0 1 1-2.5 3.3 3.3 0 0 1 2.5-1h42.5q17.5 0 26.1 7.2a25.1 25.1 0 0 1 8.6 20.4 19.2 19.2 0 0 1-3.6 11.8 21.5 21.5 0 0 1-8 7 24.2 24.2 0 0 1 13.4 21.6 26.9 26.9 0 0 1-9.2 21.8 39.6 39.6 0 0 1-26.2 7.8H4.4a3.4 3.4 0 0 1-2.3-1.1zm42.2-57.7a11.6 11.6 0 0 0 8.5-2.9 10.6 10.6 0 0 0 2.9-7.6 10.3 10.3 0 0 0-2.9-7.4 12 12 0 0 0-8.5-2.8H26.1v20.7zm1.2 40.7a12.1 12.1 0 0 0 8.9-3.4 12.1 12.1 0 0 0 0-16.4 12.1 12.1 0 0 0-8.9-3.2H26.1v23zM103 166.3a3.5 3.5 0 0 1-1-2.4V73.3a3.3 3.3 0 0 1 1-2.5 3.5 3.5 0 0 1 2.5-1h18.4a3.5 3.5 0 0 1 2.6 1 3.4 3.4 0 0 1 1.1 2.5v90.6a3.4 3.4 0 0 1-1.1 2.5 3.5 3.5 0 0 1-2.6 1h-18.6a3.4 3.4 0 0 1-2.3-1.1zM151 166.3a3.2 3.2 0 0 1-1.1-2.4V73.3a3.4 3.4 0 0 1 1.1-2.5 3.1 3.1 0 0 1 2.4-1h18.4a3.3 3.3 0 0 1 3.5 3.2v73.4h42.3a2.9 2.9 0 0 1 2.5 1 3.2 3.2 0 0 1 1 2.6v13.9a3.1 3.1 0 0 1-1 2.4 3.3 3.3 0 0 1-2.5 1.1h-64.2a3.2 3.2 0 0 1-2.4-1.1zM237 166.3a3.2 3.2 0 0 1-1.1-2.4V73.3a3.4 3.4 0 0 1 1.1-2.5 3.1 3.1 0 0 1 2.4-1h18.4a3.3 3.3 0 0 1 3.5 3.2v73.4h42.2a3 3 0 0 1 2.5 1 3.5 3.5 0 0 1 1 2.6v13.9a3.5 3.5 0 0 1-1 2.4 3.4 3.4 0 0 1-2.5 1.1h-64.1a3.2 3.2 0 0 1-2.4-1.1zM323 166.3a3.1 3.1 0 0 1-1-2.4V73.3a3 3 0 0 1 1-2.5 3.3 3.3 0 0 1 2.4-1h38a44.2 44.2 0 0 1 28.5 8.3 28.6 28.6 0 0 1 10.2 23.5 28.7 28.7 0 0 1-4.5 16.6 29.1 29.1 0 0 1-12.6 10.4l19.1 34.3a7.5 7.5 0 0 1 .4 1.6 3.2 3.2 0 0 1-2.9 2.9h-18.9a5.8 5.8 0 0 1-5.7-3.8L361.1 133H347v30.9a3 3 0 0 1-1 2.5 3.5 3.5 0 0 1-2.6 1h-17.8a3.6 3.6 0 0 1-2.6-1.1zm40.1-53.1a14 14 0 0 0 9.8-3.2 11.3 11.3 0 0 0 3.3-8.9 12.1 12.1 0 0 0-3.2-8.9 13.7 13.7 0 0 0-9.9-3.3H347v24zM429.6 159.2a37.1 37.1 0 0 1-12-28.3v-24.2a37.3 37.3 0 0 1 12.2-28.3 52.4 52.4 0 0 1 61.5 0 37.2 37.2 0 0 1 12.2 28.3c0 5.4.2 9.5.2 12.2s0 6.6-.2 12a37.5 37.5 0 0 1-12 28.3 54.7 54.7 0 0 1-61.9 0zm43.1-15.1a20.5 20.5 0 0 0 4.8-14.1c0-5.4.3-9.2.3-11.4s0-6.2-.3-11.4a19.7 19.7 0 0 0-4.9-14.1 18.5 18.5 0 0 0-24.2 0 20.6 20.6 0 0 0-4.9 14.1V130a20.6 20.6 0 0 0 4.9 14.1 16.3 16.3 0 0 0 12.1 4.5 16.7 16.7 0 0 0 12.2-4.5zM543.7 166.3a3.2 3.2 0 0 1-1.1-2.4V91.7h-24.8a3.8 3.8 0 0 1-3.5-3.5V73.3a3.4 3.4 0 0 1 1.1-2.5 3.1 3.1 0 0 1 2.4-1h75a3.3 3.3 0 0 1 3.5 3.1v15.3a3.5 3.5 0 0 1-1 2.5 3.3 3.3 0 0 1-2.5 1H568v72.2a3.5 3.5 0 0 1-1 2.4 3.4 3.4 0 0 1-2.5 1.1h-18.4a3.2 3.2 0 0 1-2.4-1.1zM612.7 166.4a3.9 3.9 0 0 1-1-2.5V73.3a3.4 3.4 0 0 1 1.1-2.5 3.3 3.3 0 0 1 2.4-1h17.9a3.7 3.7 0 0 1 2.6 1 3 3 0 0 1 1 2.5v33.6H671V73.3a3.3 3.3 0 0 1 1-2.5 3.5 3.5 0 0 1 2.5-1h17.8a3.4 3.4 0 0 1 3.6 3.1v91a3.3 3.3 0 0 1-3.2 3.5h-18.2a3.5 3.5 0 0 1-2.5-1 3.3 3.3 0 0 1-1-2.5v-34.7h-34v34.7a3 3 0 0 1-1 2.5 3.7 3.7 0 0 1-2.6 1h-17.9a3.7 3.7 0 0 1-2.8-1z" fill="#759178"/><path d="M7.5 40.7a1.7 1.7 0 0 1-.6-1.2L0 2.4v-.5a.9.9 0 0 1 .4-.8.9.9 0 0 1 .8-.4h5.1c1 0 1.5.4 1.6 1.2l4.8 26.2 5.2-17a2.2 2.2 0 0 1 2-1.4H23a1.7 1.7 0 0 1 1.8 1.4L30.1 28l4.8-26.1a1.1 1.1 0 0 1 .5-.9 2 2 0 0 1 1.1-.3h5.1a.9.9 0 0 1 .8.4.8.8 0 0 1 .3.8.5.5 0 0 1 0 .5l-6.9 37.3a1.9 1.9 0 0 1-2.1 1.7h-3.9a2.2 2.2 0 0 1-1.3-.4 2.1 2.1 0 0 1-.7-1.1l-6.5-19.5-6.4 19.3a2 2 0 0 1-2.1 1.4H8.9a1.5 1.5 0 0 1-1.4-.4zM55.5 37.8a16.3 16.3 0 0 1-4.4-11.9v-9.8a16 16 0 0 1 4.8-11.9A17.6 17.6 0 0 1 68 .1a18.1 18.1 0 0 1 12.2 4.1A16 16 0 0 1 85 16.1v9.8a16.3 16.3 0 0 1-4.7 11.9 20.7 20.7 0 0 1-24.6 0zm18.5-5a10.3 10.3 0 0 0 2.5-7.1v-9.4A10.1 10.1 0 0 0 74 9.2a8 8 0 0 0-6.2-2.4 7.8 7.8 0 0 0-6.1 2.4 10.1 10.1 0 0 0-2.5 7.1v9.4a10.3 10.3 0 0 0 2.5 7.1 8.1 8.1 0 0 0 6.1 2.4 8.4 8.4 0 0 0 6.2-2.4zM96.1 40.8a1.1 1.1 0 0 1-.4-.9V2.1a1.4 1.4 0 0 1 .4-1 1.3 1.3 0 0 1 1-.4h5.3a1.4 1.4 0 0 1 1 .4 2.1 2.1 0 0 1 .4 1v15h17v-15a2.1 2.1 0 0 1 .4-1 1.3 1.3 0 0 1 1-.4h5.2a1.5 1.5 0 0 1 1.5 1.4v37.6a2.1 2.1 0 0 1-.4 1 2.1 2.1 0 0 1-1.1.4h-5.2a1.4 1.4 0 0 1-1.4-1.4V24.1h-17v15.6a2.1 2.1 0 0 1-.4 1 2.1 2.1 0 0 1-1 .4h-5.2a1.4 1.4 0 0 1-1.1-.3zM141.5 40.8a1.5 1.5 0 0 1-.4-.9V2.1a2.1 2.1 0 0 1 .4-1 1.3 1.3 0 0 1 1-.4h4.5a1.9 1.9 0 0 1 1 .3 2.3 2.3 0 0 1 .7.7l16.6 25.9V2.1a1.4 1.4 0 0 1 .4-1 1.4 1.4 0 0 1 1-.4h4.9a1.3 1.3 0 0 1 1 .4 1.4 1.4 0 0 1 .4 1v37.6a1.4 1.4 0 0 1-1.4 1.4h-4.4a2 2 0 0 1-1.7-.9l-16.6-25.3v24.8a1.4 1.4 0 0 1-.4 1 2.1 2.1 0 0 1-1.1.4h-4.8a2 2 0 0 1-1.1-.3zM185.7 40.8a1.1 1.1 0 0 1-.4-.9V2.1a1.4 1.4 0 0 1 .4-1 1.2 1.2 0 0 1 1-.4h25.5a1.4 1.4 0 0 1 1.4 1.4V6a1.8 1.8 0 0 1-.4 1 2.1 2.1 0 0 1-1 .4h-19.1v10.2H211a1.4 1.4 0 0 1 1 .4 1.3 1.3 0 0 1 .4 1v3.6a1.3 1.3 0 0 1-.4 1 1.4 1.4 0 0 1-1 .4h-17.9v10.6h19.5a1.3 1.3 0 0 1 1.4 1.3v3.7a1.4 1.4 0 0 1-.4 1 1.5 1.5 0 0 1-1 .4h-25.9a1.7 1.7 0 0 1-1-.2zM224.9 40.8a1.5 1.5 0 0 1-.4-.9V2.1a2.1 2.1 0 0 1 .4-1 1.3 1.3 0 0 1 1-.4h4.5a1.9 1.9 0 0 1 1 .3 4.6 4.6 0 0 1 .7.7l16.6 25.9V2.1a1.4 1.4 0 0 1 .4-1 1.3 1.3 0 0 1 1-.4h4.8a1.5 1.5 0 0 1 1.1.4 1.4 1.4 0 0 1 .4 1v37.6a1.4 1.4 0 0 1-1.4 1.4h-4.4a2 2 0 0 1-1.7-.9l-16.6-25.3v24.8a1.4 1.4 0 0 1-.4 1 2.1 2.1 0 0 1-1 .4H226a1.4 1.4 0 0 1-1.1-.3zM285.6 40.8a.9.9 0 0 1-.4-.9V2.1a1 1 0 0 1 .4-1 1.1 1.1 0 0 1 .9-.4h5.5a1.3 1.3 0 0 1 1 .4 1.3 1.3 0 0 1 .4 1v37.6a1.4 1.4 0 0 1-1.2 1.4h-5.7a1.4 1.4 0 0 1-.9-.3zM306.1 40.8a1.1 1.1 0 0 1-.4-.9V2.1a1.4 1.4 0 0 1 1.4-1.4h4.5a1.8 1.8 0 0 1 1.7 1.1l11.2 20.8 11.3-20.8a1.8 1.8 0 0 1 1.7-1.1h4.5a1.4 1.4 0 0 1 1.4 1.4v37.6a1.4 1.4 0 0 1-.4 1 1.8 1.8 0 0 1-1 .4h-4.9a2.1 2.1 0 0 1-1-.4 2.1 2.1 0 0 1-.4-1V14.6L327.6 30a2.1 2.1 0 0 1-1.9 1.3h-2.4a2.3 2.3 0 0 1-2-1.3l-8.1-15.4v25.1a1.9 1.9 0 0 1-.3 1 2.1 2.1 0 0 1-1.1.4H307a1.6 1.6 0 0 1-.9-.3zM372.8 40.8a1.1 1.1 0 0 1-.4-.9V2.1a1.9 1.9 0 0 1 .3-1 1.5 1.5 0 0 1 1.1-.4h5a1.5 1.5 0 0 1 1.1.4 2.1 2.1 0 0 1 .4 1v13.4l13-13.9a3 3 0 0 1 2.3-1.1h5.7a1.3 1.3 0 0 1 .9.4 1.2 1.2 0 0 1 .4.8 1.1 1.1 0 0 1-.3.8l-15.9 17.4 17 19.2a.9.9 0 0 1 .3.7.9.9 0 0 1-.4.9 1.2 1.2 0 0 1-.8.4h-5.9a2.8 2.8 0 0 1-2.3-1.1l-14-15.3v15a2.1 2.1 0 0 1-.4 1 2.1 2.1 0 0 1-1.1.4h-5a1.7 1.7 0 0 1-1-.3zM412.6 40.8a1.1 1.1 0 0 1-.4-.9V2.1a1.9 1.9 0 0 1 .3-1 2.1 2.1 0 0 1 1.1-.4h15a16.8 16.8 0 0 1 11 3.3 11.3 11.3 0 0 1 4 9.4 12 12 0 0 1-2 7.1 11.8 11.8 0 0 1-5.7 4.1l8.4 14.8a.6.6 0 0 1 0 .6 1.2 1.2 0 0 1-1.2 1.2h-5a1.9 1.9 0 0 1-1.5-.4l-.9-1.1-7.4-13.8h-8.1v13.8a1.9 1.9 0 0 1-.3 1 2.1 2.1 0 0 1-1.1.4h-5.2a1.7 1.7 0 0 1-1-.3zm15.8-21.4a7.6 7.6 0 0 0 5.2-1.5 5.9 5.9 0 0 0 1.8-4.5 5.9 5.9 0 0 0-1.8-4.5 8 8 0 0 0-5.2-1.6h-8.2v12.3zM454.7 40.8a1.5 1.5 0 0 1-.4-.9V2.1a2.1 2.1 0 0 1 .4-1 1.5 1.5 0 0 1 1.1-.4h25.4a1.2 1.2 0 0 1 1 .4 1.6 1.6 0 0 1 .5 1V6a1.2 1.2 0 0 1-.5 1 1.3 1.3 0 0 1-1 .4h-19.1v10.2H480a1.4 1.4 0 0 1 1.4 1.4v3.6a1.3 1.3 0 0 1-.4 1 1.8 1.8 0 0 1-1 .4h-17.9v10.6h19.5a1.5 1.5 0 0 1 1.1.4 1.3 1.3 0 0 1 .4 1v3.7a1.4 1.4 0 0 1-.4 1 2.1 2.1 0 0 1-1.1.4h-25.8a2 2 0 0 1-1.1-.3zM494 40.8a1.1 1.1 0 0 1-.4-.9V2.1a1.2 1.2 0 0 1 .4-1 1.3 1.3 0 0 1 1-.4h5.4a1.3 1.3 0 0 1 1 .4 1.2 1.2 0 0 1 .4 1v37.6a1.4 1.4 0 0 1-.4 1 1.5 1.5 0 0 1-1 .4H495a1.7 1.7 0 0 1-1-.3zM519.3 40.3a13.6 13.6 0 0 1-5.6-4.2 9.7 9.7 0 0 1-2-5.5 1.1 1.1 0 0 1 .3-.8 1.2 1.2 0 0 1 .9-.4h5.2a1.9 1.9 0 0 1 1 .3 1.8 1.8 0 0 1 .7.8 6.3 6.3 0 0 0 2.7 3.3 10.3 10.3 0 0 0 5.7 1.4 12.3 12.3 0 0 0 6.2-1.4 4.5 4.5 0 0 0 2.1-3.8 3.9 3.9 0 0 0-1.1-2.7 9.2 9.2 0 0 0-3.2-1.8l-6.2-1.8a22.8 22.8 0 0 1-10-4.5 9.2 9.2 0 0 1-3.2-7.6 10.6 10.6 0 0 1 1.8-6 13.3 13.3 0 0 1 5.3-4.1 20 20 0 0 1 8-1.5 18 18 0 0 1 8.2 1.7 13.6 13.6 0 0 1 5.3 4.2 10 10 0 0 1 2 5 1.2 1.2 0 0 1-1.3 1.2h-5.4a1.6 1.6 0 0 1-1.6-1.1 4.6 4.6 0 0 0-2.3-3.1 8.5 8.5 0 0 0-4.9-1.2 8.4 8.4 0 0 0-5.1 1.2 3.8 3.8 0 0 0-1.8 3.5 3.4 3.4 0 0 0 .9 2.7 7.9 7.9 0 0 0 2.9 1.8l5.7 1.8a43.6 43.6 0 0 1 8.2 2.6 11.5 11.5 0 0 1 4.5 3.7 10 10 0 0 1 1.4 5.6 9.9 9.9 0 0 1-2.1 6.4 12 12 0 0 1-5.7 4.2 25.5 25.5 0 0 1-8.6 1.5 24.8 24.8 0 0 1-8.9-1.4zM574 40.8a1.2 1.2 0 0 1-.3-.9v-.5l14-31.8h-18.2a1.2 1.2 0 0 1-1-.4 1.3 1.3 0 0 1-.4-1V2.1a1.4 1.4 0 0 1 .4-1 1.2 1.2 0 0 1 1-.4h25.4a1.3 1.3 0 0 1 1 .4 2.1 2.1 0 0 1 .4 1v3.7a5.3 5.3 0 0 1-.6 2.4l-13.8 31.7a2.1 2.1 0 0 1-1.8 1.3h-5.3a.9.9 0 0 1-.8-.4z" fill="#a9c8a6"/><path d="M754 180.2h-15.4V47.3A20.3 20.3 0 0 0 718.3 27h-95.1V11.6h95.1a35.6 35.6 0 0 1 35.6 35.7z" fill="#bca26d"/><path d="M2.1 288.8a3.5 3.5 0 0 1-1-2.4v-90.6a3.1 3.1 0 0 1 1-2.5 3.4 3.4 0 0 1 2.5-.9h15a5.2 5.2 0 0 1 4.9 3L49 239.3l24.6-43.9a5.1 5.1 0 0 1 4.9-3h14.9a3.6 3.6 0 0 1 2.6.9 3.5 3.5 0 0 1 1 2.5v90.7a3.1 3.1 0 0 1-1 2.4 3.3 3.3 0 0 1-2.6 1H76.8a3.2 3.2 0 0 1-2.6-1 2.8 2.8 0 0 1-1-2.4v-52.4l-15.6 29.1a5.5 5.5 0 0 1-5 3.2h-7.2a4.3 4.3 0 0 1-2.9-.8 7.2 7.2 0 0 1-1.9-2.4l-15.8-29.1v52.3a3.3 3.3 0 0 1-1 2.4 2.9 2.9 0 0 1-2.5 1H4.6a3.5 3.5 0 0 1-2.5-1zM130.4 288.8a3.4 3.4 0 0 1-1.1-2.4v-90.6a3.6 3.6 0 0 1 1.1-2.5 3 3 0 0 1 2.4-.9h18.7a3.5 3.5 0 0 1 2.6.9 3.1 3.1 0 0 1 1 2.5v90.7a2.8 2.8 0 0 1-1 2.4 3.2 3.2 0 0 1-2.6 1h-18.6a3.3 3.3 0 0 1-2.5-1.1zM188.4 288.8a3.2 3.2 0 0 1-1.1-2.4v-90.6a3.6 3.6 0 0 1 1.1-2.5 3 3 0 0 1 2.4-.9h14.8a4.6 4.6 0 0 1 4.7 2.6l34 53.5v-52.7a3.6 3.6 0 0 1 1.1-2.5 3.2 3.2 0 0 1 2.4-.9h16.7a3.4 3.4 0 0 1 3.6 3.1v90.8a4.2 4.2 0 0 1-1 2.6 3.2 3.2 0 0 1-2.6 1h-14.9a4.8 4.8 0 0 1-4.4-2.6l-34-51.6v50.8a3.7 3.7 0 0 1-1 2.4 3.3 3.3 0 0 1-2.5 1h-16.8a3.3 3.3 0 0 1-2.5-1.1zM301.4 288.8a3.1 3.1 0 0 1-1-2.4v-90.6a3.1 3.1 0 0 1 1-2.5 3.4 3.4 0 0 1 2.5-.9H369a3.4 3.4 0 0 1 2.5.9 3.9 3.9 0 0 1 1 2.5V209a3.9 3.9 0 0 1-1 2.4 3.1 3.1 0 0 1-2.5 1h-44.3v18.8h41.4a3.3 3.3 0 0 1 2.5 1.1 3.2 3.2 0 0 1 1 2.6V247a3.1 3.1 0 0 1-1 2.4 3.3 3.3 0 0 1-2.5 1.1h-41.4v19.4h45.6a3.1 3.1 0 0 1 2.5.9 3.5 3.5 0 0 1 1 2.5v13.2a3.3 3.3 0 0 1-1 2.4 2.9 2.9 0 0 1-2.5 1h-66.4a3.3 3.3 0 0 1-2.5-1.1zM403.3 288.8a3.5 3.5 0 0 1-1-2.4v-90.6a3.1 3.1 0 0 1 1-2.5 3.2 3.2 0 0 1 2.5-.9h37.9a43.5 43.5 0 0 1 28.5 8.3 28.3 28.3 0 0 1 10.2 23.4 27.9 27.9 0 0 1-17.3 27.1l19.1 34.3a2.7 2.7 0 0 1 .5 1.5 3.1 3.1 0 0 1-.9 2 2.7 2.7 0 0 1-2.1.9H463a5.7 5.7 0 0 1-5.7-3.8l-15.9-30.6h-14.1v31a2.8 2.8 0 0 1-1 2.4 3.2 3.2 0 0 1-2.6 1h-17.8a3.6 3.6 0 0 1-2.6-1.1zm40.2-53.2a14.6 14.6 0 0 0 9.8-3.1 11.4 11.4 0 0 0 3.3-8.7 12 12 0 0 0-3.3-9 13.4 13.4 0 0 0-9.8-3.2h-16.2v23.9zM530.5 285.6l-28.4-89.2-.3-1.2a2.9 2.9 0 0 1 3.1-2.9h17.3a4.6 4.6 0 0 1 3.3 1.1 4.9 4.9 0 0 1 1.7 2.5l19.8 64.4 19.6-64.5a5.6 5.6 0 0 1 1.8-2.5 5.4 5.4 0 0 1 3.2-1.1h17.5a3.1 3.1 0 0 1 2.9 2.9l-.3 1.3-28.4 89.2a5.4 5.4 0 0 1-5.7 4.2h-21.3a5.5 5.5 0 0 1-5.8-4.2zM602.5 288.9a2.9 2.9 0 0 1-.9-2v-1.3l32.8-89.5a5 5 0 0 1 1.8-2.7 5.2 5.2 0 0 1 3.6-1.1h20.7a5.3 5.3 0 0 1 3.6 1.1 5 5 0 0 1 1.8 2.7l32.6 89.5.3 1.3a2.5 2.5 0 0 1-.9 2 3.1 3.1 0 0 1-2.2.9h-17.1a4.3 4.3 0 0 1-4.5-2.9l-5.4-14.2h-37.2l-5.3 14.2a4.3 4.3 0 0 1-4.5 2.9h-17.1a2.7 2.7 0 0 1-2.1-.9zm60.7-36.3l-12.9-36.8-13 36.8z" fill="#759178"/></svg>