<svg xmlns="http://www.w3.org/2000/svg" viewBox="0 0 313 161"><path d="M44.1,115c24.2,0,40.3-14.5,40.3-33.2S71.6,54.5,48.5,50.1C29.1,46.3,18,40.3,18,28.8S28.4,11.5,41.9,11.5s24.9,7.6,29.8,21.7L82.2,27C76.5,10.3,61.8,0,42,0,20.5,0,5.2,11.8,5.2,28.9S19.9,56.6,41.4,60.5C60,64,71.1,70.2,71.1,82.8c0,10.9-10.1,20.7-27.2,20.7S15.5,92.6,11.8,74.6L0,80.7C3.9,99.9,18.8,115,44.1,115Zm77.2,0a29.1,29.1,0,0,0,10.2-1.6l-1.1-10.5a27.1,27.1,0,0,1-6.2.9c-7.1,0-10.8-3.8-10.8-12V44.4h18.7v-10H113.4V13.3H100.6V34.4H87.4v10h13.2V92.7c0,16.2,9.5,22.3,20.7,22.3Zm21.4-2.2h12.6V71.4c0-15.2,9-27.6,20.9-27.6a20.8,20.8,0,0,1,6,.8l2-11.6a21.2,21.2,0,0,0-6.4-.8c-10.5,0-18.7,7.1-22.5,16.3V34.4H142.7v78.4Zm78,2.2A29.6,29.6,0,0,0,247,99.1v13.7h12.8V34.4H247V76.2c0,16.2-10.3,27.3-23,27.3s-18.8-6.8-18.8-19.4V34.4H192.6V85.6c0,20.7,13.1,29.4,28.1,29.4Zm81.6,0a28.9,28.9,0,0,0,10.1-1.6l-1.1-10.5a27.1,27.1,0,0,1-6.2.9c-7.1,0-10.7-3.8-10.7-12V44.4H313v-10H294.4V13.3H281.6V34.4H268.3v10h13.3V92.7c0,16.2,9.4,22.3,20.7,22.3Z" style="fill:#1d1d1b"/><path d="M51.4,160.3H56l4.2-10.7H76l4.2,10.7h4.6L70.3,124.2H65.9L51.4,160.3Zm10.2-14.4,5.5-14.2a15.7,15.7,0,0,0,1-2.8,15.7,15.7,0,0,0,1,2.8l5.5,14.2Zm26.7,14.4h4.1V146.7c0-4.9,2.9-9,6.8-9a5.6,5.6,0,0,1,2,.3l.6-3.8a6.5,6.5,0,0,0-2.1-.2,8,8,0,0,0-7.3,5.3v-4.6H88.3v25.6Zm26.9.7a12.2,12.2,0,0,0,11.1-6.5l-3.2-2c-1.7,2.9-3.9,4.7-7.8,4.7s-9-3.8-9-9.7,4-9.7,9-9.7a8.2,8.2,0,0,1,7.6,4.7l3.4-2.1c-2-4.1-5.7-6.4-11.1-6.4a13.1,13.1,0,0,0-13.1,13.5c0,7.9,5.6,13.5,13.1,13.5Zm16.6-.7h4.1V146.5c0-5.2,3.9-8.8,7.9-8.8s6.2,2.2,6.2,6.3v16.3h4.2V142.9c0-5.6-3.5-8.9-9-8.9a10.6,10.6,0,0,0-9.3,5.4V124.2h-4.1v36.1Zm29-30.1h4.9v-5h-4.9v5Zm.4,30.1h4.1V134.7h-4.1v25.6Zm20,.7a9.5,9.5,0,0,0,3.3-.5l-.3-3.5a6,6,0,0,1-2,.3c-2.4,0-3.5-1.2-3.5-3.9V137.9h6v-3.2h-6v-6.9h-4.2v6.9h-4.4v3.2h4.4v15.8c0,5.3,3.1,7.3,6.7,7.3Zm18.4,0c5.7,0,9.4-2.7,11.8-7.5l-3.1-1.8c-1.6,3.4-4.2,5.7-8.5,5.7s-8.6-4-8.8-9.3h21.1v-1.4c0-7.4-4.8-12.7-12.3-12.7s-12.9,5.5-12.9,13.5,5.7,13.5,12.7,13.5ZM191,144.8a9,9,0,0,1,8.8-7.5c4.1,0,7.9,2.6,8.1,7.5Zm26.7,15.5h4.1V149.5l3.2-3.1,8.9,13.9h4.8l-10.8-16.8,9.2-8.8h-5.2l-10.1,9.6V124.2h-4.1v36.1Zm33.9.7a10,10,0,0,0,3.3-.5l-.3-3.5a6.6,6.6,0,0,1-2.1.3c-2.3,0-3.5-1.2-3.5-3.9V137.9h6.1v-3.2H249v-6.9h-4.1v6.9h-4.4v3.2h4.4v15.8c0,5.3,3,7.3,6.7,7.3Zm18.4,0c5.7,0,9.4-2.7,11.7-7.5l-3.1-1.8c-1.6,3.4-4.1,5.7-8.5,5.7s-8.5-4-8.7-9.3h21.1v-1.4c0-7.4-4.8-12.7-12.3-12.7s-12.9,5.5-12.9,13.5S263,161,270,161Zm-8.6-16.2a9,9,0,0,1,8.7-7.5c4.2,0,7.9,2.6,8.2,7.5Zm26.2,15.5h4.1v-14c0-5,3.6-8.6,7.5-8.6s6.2,2.2,6.2,6.3v16.3h4.2V142.9c0-6.1-4.1-8.9-9-8.9a10.3,10.3,0,0,0-8.9,5.2v-4.5h-4.1v25.6Z" style="fill:#1d1d1b"/></svg>